<svg width="15" height="18" viewBox="0 0 15 18" fill="none" xmlns="http://www.w3.org/2000/svg">
<g id="Group">
<path id="Vector" d="M4.69528 5.56821H5.81636V14.5369H4.69528V5.56821ZM6.93745 5.56821H8.05854V14.5369H6.93745V5.56821ZM9.17962 5.56821H10.3007V14.5369H9.17962V5.56821ZM0.210938 2.20496H14.785V3.32604H0.210938V2.20496Z" fill="#7B7B7B"/>
<path id="Vector_2" d="M10.264 2.76534H9.21762V1.64426C9.21762 1.30793 8.95603 1.04635 8.6197 1.04635H6.37753C6.04121 1.04635 5.77962 1.30793 5.77962 1.64426V2.76534H4.73328V1.64426C4.73328 0.747388 5.48066 0 6.37753 0H8.6197C9.51657 0 10.264 0.747388 10.264 1.64426V2.76534Z" fill="#7B7B7B"/>
<path id="Vector_3" d="M10.8613 17.9003H4.13474C3.23788 17.9003 2.45312 17.1529 2.37838 16.256L1.33203 2.80301L2.45312 2.72827L3.49946 16.1813C3.53683 16.5176 3.83579 16.7792 4.13474 16.7792H10.8613C11.1976 16.7792 11.4965 16.4803 11.4965 16.1813L12.5429 2.72827L13.664 2.80301L12.6176 16.256C12.5429 17.1903 11.7581 17.9003 10.8613 17.9003Z" fill="#7B7B7B"/>
</g>
</svg>
