<svg width="16" height="17" viewBox="0 0 16 17" fill="none" xmlns="http://www.w3.org/2000/svg">
<g id="Group 6282">
<path id="Vector (Stroke)" fill-rule="evenodd" clip-rule="evenodd" d="M13.4192 1.39426C13.2638 1.39393 13.1099 1.42433 12.9663 1.48371C12.823 1.54299 12.6928 1.62998 12.5832 1.7397C12.583 1.73988 12.5828 1.74007 12.5826 1.74026L2.66261 11.7152L2.22609 13.8018L4.31166 13.3655L14.2598 3.41741C14.3698 3.30767 14.4569 3.17727 14.5163 3.0337C14.5757 2.89013 14.6061 2.73624 14.6058 2.58088L14.6058 2.57938C14.6058 2.26507 14.4809 1.96363 14.2587 1.74138C14.0364 1.51912 13.735 1.39426 13.4206 1.39426L13.4192 1.39426ZM13.4214 4.41075e-06C13.0824 -0.000623276 12.7467 0.0657488 12.4334 0.195308C12.12 0.324963 11.8352 0.515337 11.5956 0.755472L1.38254 11.0251L0.424805 15.6031L5.00379 14.6452L15.2446 4.4044C15.2445 4.40451 15.2447 4.40429 15.2446 4.4044C15.4845 4.16487 15.6751 3.87993 15.8047 3.5666C15.9342 3.25359 16.0006 2.9181 16 2.57938" fill="#7B7B7B"/>
<path id="Vector (Stroke)_2" fill-rule="evenodd" clip-rule="evenodd" d="M15.9643 16.0337H0V14.6394H15.9643V16.0337Z" fill="#7B7B7B"/>
<path id="Vector (Stroke)_3" fill-rule="evenodd" clip-rule="evenodd" d="M11.1396 2.19806L13.8026 4.8611L12.8167 5.84699L10.1537 3.18395L11.1396 2.19806Z" fill="#7B7B7B"/>
</g>
</svg>
